<?xml version="1.0" encoding="utf-8"?>
<!-- Generator: Adobe Illustrator 21.0.0, SVG Export Plug-In . SVG Version: 6.00 Build 0)  -->
<svg version="1.1" id="Layer_1" xmlns="http://www.w3.org/2000/svg" xmlns:xlink="http://www.w3.org/1999/xlink" x="0px" y="0px"
	 viewBox="0 0 176 75" style="enable-background:new 0 0 176 75;" xml:space="preserve">
<style type="text/css">
	.st0{fill:#777777;}
	.st1{fill:#FFFFFF;}
	.st2{font-family:'COCOGOOSE';}
	.st3{font-size:39.8181px;}
</style>
<path class="st0" d="M31.8,3C16.5,3,4,14.6,4,28.9c0,5.8,2.1,11.2,5.6,15.5L31.8,72l22.3-27.6c3.5-4.3,5.6-9.7,5.6-15.5
	C59.7,14.6,47.2,3,31.8,3z"/>
<path class="st1" d="M31.8,7.6c-12.7,0-22.9,9.5-22.9,21.3c0,4.8,1.7,9.2,4.6,12.8l18.3,22.7l18.3-22.7c2.9-3.6,4.6-8,4.6-12.8
	C54.8,17.1,44.5,7.6,31.8,7.6z"/>
<path class="st0" d="M12.3,34.2L31.8,16l7.1,6.9v-6.1H46v11.3l5.3,6.1h-4.4v16.5L35.4,62c0,0,1.8-16.5-3.5-16.5S28.3,62,28.3,62
	L16.8,50.7V34.2H12.3z"/>
<text transform="matrix(1 0 0 1 64.5273 50.5068)" class="st0 st2 st3">casa</text>
</svg>
